<?xml version="1.0" encoding="UTF-8"?>
<svg width="" height="" viewBox="0 0 42 42" version="1.1" xmlns="http://www.w3.org/2000/svg" xmlns:xlink="http://www.w3.org/1999/xlink">
    <title>Circle-with-check</title>
    <defs>
        <path d="M29.7363948,11.3993504 C29.3537558,10.9447388 28.6832265,10.8677555 28.2072054,11.2226076 C27.9808107,11.392062 22.740934,15.3537422 16.1199128,24.3680792 L11.7988253,21.0965158 C11.3433027,20.7516851 10.7005603,20.8040702 10.3078998,21.2190514 C9.91478379,21.6335769 9.89565184,22.2772304 10.2646252,22.7140766 L16.0219755,29.5350722 C16.2365266,29.7897093 16.5517483,29.933199 16.878358,29.933199 C16.9421312,29.933199 17.0049933,29.9277327 17.0683109,29.9168001 C17.4605159,29.8498383 17.7875811,29.5792579 17.9278821,29.2075514 C17.9584021,29.1269239 21.0582335,21.0796614 29.6498455,12.9353726 C30.0807699,12.5272244 30.1190338,11.8535064 29.7363948,11.3993504" id="path-1"></path>
    </defs>
    <g id="Symbols" stroke="none" stroke-width="1" fill="none" fill-rule="evenodd">
        <g id="Circle-with-check" transform="translate(1.000000, 1.000000)">
            <circle id="Oval" stroke="#F78E1E" stroke-width="2" fill="#F78E1E" cx="20" cy="20" r="20"></circle>
            <mask id="mask-2" fill="white">
                <use xlink:href="#path-1"></use>
            </mask>
            <use id="Mask" fill="#FFFFFF" xlink:href="#path-1"></use>
        </g>
    </g>
</svg>